<svg width="43" height="43" viewBox="0 0 43 43" fill="none" xmlns="http://www.w3.org/2000/svg">
    <path d="M23.544 42.864C17.9973 42.864 13.848 41.36 11.096 38.352C8.36534 35.344 7 31.0667 7 25.52V17.456C7 11.952 8.36534 7.70666 11.096 4.71999C13.848 1.73332 17.9867 0.23999 23.512 0.23999C25.0907 0.23999 26.5307 0.36799 27.832 0.623989C29.1333 0.879991 30.3067 1.22132 31.352 1.64799C32.4187 2.05332 33.3467 2.50132 34.136 2.99199L34.776 10.384C33.5173 9.61599 32.0987 8.95466 30.52 8.39999C28.9413 7.84532 27.096 7.56799 24.984 7.56799C21.8267 7.56799 19.4693 8.45332 17.912 10.224C16.3547 11.9947 15.576 14.4907 15.576 17.712V25.2C15.576 28.4 16.3653 30.896 17.944 32.688C19.5227 34.4587 21.9653 35.344 25.272 35.344C27.3413 35.344 29.176 35.0667 30.776 34.512C32.376 33.9573 33.816 33.2747 35.096 32.464L34.456 39.984C33.688 40.4747 32.76 40.944 31.672 41.392C30.584 41.8187 29.3573 42.1707 27.992 42.448C26.648 42.7253 25.1653 42.864 23.544 42.864Z" fill="black" />
    <circle cx="28.5" cy="21.5" r="6.5" fill="black" />
    <path d="M30.5 21.5H46.5" stroke="black" stroke-width="7" />
</svg>